<svg width="34" height="34" viewBox="0 0 34 34" fill="none" xmlns="http://www.w3.org/2000/svg">
<path d="M2.83398 9.20831C2.83398 6.20311 2.83398 4.70051 3.76758 3.76691C4.70118 2.83331 6.20378 2.83331 9.20898 2.83331C12.2142 2.83331 13.7168 2.83331 14.6504 3.76691C15.584 4.70051 15.584 6.20311 15.584 9.20831C15.584 12.2135 15.584 13.7161 14.6504 14.6497C13.7168 15.5833 12.2142 15.5833 9.20898 15.5833C6.20378 15.5833 4.70118 15.5833 3.76758 14.6497C2.83398 13.7161 2.83398 12.2135 2.83398 9.20831Z" fill="#C2B4A3"/>
<path d="M18.416 24.7917C18.416 21.7865 18.416 20.2839 19.3496 19.3503C20.2832 18.4167 21.7858 18.4167 24.791 18.4167C27.7962 18.4167 29.2988 18.4167 30.2324 19.3503C31.166 20.2839 31.166 21.7865 31.166 24.7917C31.166 27.7969 31.166 29.2995 30.2324 30.2331C29.2988 31.1667 27.7962 31.1667 24.791 31.1667C21.7858 31.1667 20.2832 31.1667 19.3496 30.2331C18.416 29.2995 18.416 27.7969 18.416 24.7917Z" fill="#C2B4A3"/>
<path d="M2.83398 24.7917C2.83398 21.7865 2.83398 20.2839 3.76758 19.3503C4.70118 18.4167 6.20378 18.4167 9.20898 18.4167C12.2142 18.4167 13.7168 18.4167 14.6504 19.3503C15.584 20.2839 15.584 21.7865 15.584 24.7917C15.584 27.7969 15.584 29.2995 14.6504 30.2331C13.7168 31.1667 12.2142 31.1667 9.20898 31.1667C6.20378 31.1667 4.70118 31.1667 3.76758 30.2331C2.83398 29.2995 2.83398 27.7969 2.83398 24.7917Z" fill="#C2B4A3"/>
<path d="M18.416 9.20831C18.416 6.20311 18.416 4.70051 19.3496 3.76691C20.2832 2.83331 21.7858 2.83331 24.791 2.83331C27.7962 2.83331 29.2988 2.83331 30.2324 3.76691C31.166 4.70051 31.166 6.20311 31.166 9.20831C31.166 12.2135 31.166 13.7161 30.2324 14.6497C29.2988 15.5833 27.7962 15.5833 24.791 15.5833C21.7858 15.5833 20.2832 15.5833 19.3496 14.6497C18.416 13.7161 18.416 12.2135 18.416 9.20831Z" fill="#C2B4A3"/>
</svg>
