<svg width="34" height="34" viewBox="0 0 34 34" fill="none" xmlns="http://www.w3.org/2000/svg">
<path d="M14.1673 5.66669H19.834C25.1766 5.66669 27.8479 5.66669 29.5076 7.32642C30.7026 8.52143 31.0372 10.2409 31.1309 13.1042H2.87042C2.9641 10.2409 3.2987 8.52143 4.49371 7.32642C6.15344 5.66669 8.82473 5.66669 14.1673 5.66669Z" fill="#C2B4A3"/>
<path fill-rule="evenodd" clip-rule="evenodd" d="M31.1666 18.1582L30.5879 17.5795C29.3431 16.3347 27.3249 16.3347 26.0801 17.5795L24.9447 18.7148C24.4917 17.5062 23.3258 16.6459 21.959 16.6459C20.1986 16.6459 18.7715 18.0729 18.7715 19.8334V22.3321C18.0775 22.4093 17.4039 22.7139 16.8717 23.2461C15.627 24.4909 15.627 26.5091 16.8717 27.7539L17.4512 28.3334H14.1673C8.82473 28.3334 6.15344 28.3334 4.49371 26.6736C2.83398 25.0139 2.83398 22.3426 2.83398 17C2.83398 16.3739 2.83398 15.7846 2.83666 15.2292H31.1646C31.1673 15.7846 31.1673 16.3739 31.1673 17C31.1673 17.4009 31.1673 17.7867 31.1666 18.1582ZM8.50065 21.6042C7.91385 21.6042 7.43815 22.0799 7.43815 22.6667C7.43815 23.2535 7.91385 23.7292 8.50065 23.7292H14.1673C14.7541 23.7292 15.2298 23.2535 15.2298 22.6667C15.2298 22.0799 14.7541 21.6042 14.1673 21.6042H8.50065Z" fill="#C2B4A3"/>
<path fill-rule="evenodd" clip-rule="evenodd" d="M21.959 18.7709C22.5458 18.7709 23.0215 19.2466 23.0215 19.8334V25.7683L24.041 24.7487C24.4559 24.3338 25.1287 24.3338 25.5436 24.7487C25.9586 25.1637 25.9586 25.8364 25.5436 26.2513L22.7103 29.0847C22.2954 29.4996 21.6226 29.4996 21.2077 29.0847L18.3744 26.2513C17.9594 25.8364 17.9594 25.1637 18.3744 24.7487C18.7893 24.3338 19.462 24.3338 19.877 24.7487L20.8965 25.7683V19.8334C20.8965 19.2466 21.3722 18.7709 21.959 18.7709ZM27.5827 19.0821C27.9976 18.6671 28.6704 18.6671 29.0853 19.0821L31.9186 21.9154C32.3336 22.3303 32.3336 23.0031 31.9186 23.418C31.5037 23.8329 30.8309 23.8329 30.416 23.418L29.3965 22.3985V28.3334C29.3965 28.9202 28.9208 29.3959 28.334 29.3959C27.7472 29.3959 27.2715 28.9202 27.2715 28.3334V22.3985L26.252 23.418C25.837 23.8329 25.1643 23.8329 24.7493 23.418C24.3344 23.0031 24.3344 22.3303 24.7493 21.9154L27.5827 19.0821Z" fill="#C2B4A3"/>
</svg>
