<svg width="623" height="623" viewBox="0 0 623 623" fill="none" xmlns="http://www.w3.org/2000/svg">
<g clip-path="url(#clip0_146_3985)">
<mask id="mask0_146_3985" style="mask-type:luminance" maskUnits="userSpaceOnUse" x="0" y="0" width="623" height="623">
<path d="M623 0H0V623H623V0Z" fill="white"/>
</mask>
<g mask="url(#mask0_146_3985)">
<path fill-rule="evenodd" clip-rule="evenodd" d="M411.604 512.533C381.376 562.915 344.821 585.62 311.5 585.62C278.178 585.62 241.624 562.915 211.395 512.533C181.612 462.895 161.98 391.908 161.98 311.5C161.98 231.092 181.612 160.105 211.395 110.468C241.624 60.0868 278.178 37.38 311.5 37.38C344.821 37.38 381.376 60.0868 411.604 110.468C441.386 160.105 461.02 231.092 461.02 311.5C461.02 391.908 441.386 462.895 411.604 512.533ZM623 311.5C623 139.463 483.535 0 311.5 0C139.463 0 0 139.463 0 311.5C0 483.535 139.463 623 311.5 623C483.535 623 623 483.535 623 311.5ZM37.38 311.5C37.38 423.422 104.454 519.675 200.598 562.258C154.498 505.53 124.6 414.336 124.6 311.5C124.6 208.665 154.498 117.469 200.598 60.7409C104.454 103.325 37.38 199.579 37.38 311.5ZM585.62 311.5C585.62 423.422 518.545 519.675 422.403 562.258C468.502 505.53 498.4 414.336 498.4 311.5C498.4 208.665 468.502 117.469 422.403 60.7409C518.545 103.325 585.62 199.579 585.62 311.5ZM311.5 345.765C330.424 345.765 345.765 330.424 345.765 311.5C345.765 292.576 330.424 277.235 311.5 277.235C292.576 277.235 277.235 292.576 277.235 311.5C277.235 330.424 292.576 345.765 311.5 345.765Z" fill="#B8A893"/>
</g>
</g>
<defs>
<clipPath id="clip0_146_3985">
<rect width="623" height="623" fill="white"/>
</clipPath>
</defs>
</svg>
