<svg width="790" height="147" viewBox="0 0 790 147" fill="none" xmlns="http://www.w3.org/2000/svg">
<path d="M669.17 114.714V39.159H689.679V114.714H669.17ZM718.485 114.714V70.1319C718.485 65.7519 717.076 62.3626 714.258 59.964C711.544 57.4612 708.152 56.2097 704.082 56.2097C701.368 56.2097 698.916 56.7833 696.724 57.9304C694.532 58.9733 692.81 60.5376 691.557 62.6233C690.305 64.709 689.679 67.2119 689.679 70.1319L681.694 66.2212C681.694 60.3812 682.947 55.3233 685.452 51.0476C688.061 46.7719 691.557 43.4869 695.941 41.1926C700.325 38.794 705.282 37.5947 710.814 37.5947C716.032 37.5947 720.781 38.794 725.06 41.1926C729.34 43.4869 732.732 46.7719 735.237 51.0476C737.742 55.219 738.994 60.2769 738.994 66.2212V114.714H718.485ZM767.8 114.714V70.1319C767.8 65.7519 766.391 62.3626 763.573 59.964C760.86 57.4612 757.468 56.2097 753.397 56.2097C750.788 56.2097 748.335 56.7833 746.039 57.9304C743.847 58.9733 742.125 60.5376 740.873 62.6233C739.62 64.709 738.994 67.2119 738.994 70.1319L727.252 67.3162C727.67 61.2676 729.288 56.0533 732.106 51.6733C734.924 47.189 738.629 43.7476 743.221 41.349C747.813 38.8462 752.927 37.5947 758.564 37.5947C764.2 37.5947 769.262 38.794 773.749 41.1926C778.237 43.4869 781.786 46.824 784.395 51.204C787.005 55.584 788.309 60.7983 788.309 66.8469V114.714H767.8Z" fill="white"/>
<path d="M615.573 116.279C607.954 116.279 601.066 114.558 594.908 111.117C588.855 107.571 584.001 102.826 580.348 96.8818C576.8 90.8333 575.025 84.1068 575.025 76.7025C575.025 69.2982 576.8 62.6761 580.348 56.8361C583.897 50.8918 588.75 46.199 594.908 42.7575C601.066 39.2118 607.902 37.439 615.417 37.439C623.14 37.439 630.029 39.2118 636.082 42.7575C642.24 46.199 647.093 50.8918 650.642 56.8361C654.191 62.6761 655.965 69.2982 655.965 76.7025C655.965 84.1068 654.191 90.8333 650.642 96.8818C647.093 102.826 642.24 107.571 636.082 111.117C630.029 114.558 623.193 116.279 615.573 116.279ZM615.417 97.1947C619.279 97.1947 622.671 96.3604 625.593 94.6918C628.62 92.919 630.916 90.5204 632.482 87.4961C634.151 84.3675 634.986 80.8218 634.986 76.859C634.986 72.8961 634.151 69.4025 632.482 66.3783C630.812 63.354 628.515 61.0075 625.593 59.339C622.671 57.5661 619.279 56.6797 615.417 56.6797C611.66 56.6797 608.32 57.5661 605.397 59.339C602.475 61.0075 600.179 63.354 598.509 66.3783C596.839 69.4025 596.004 72.8961 596.004 76.859C596.004 80.8218 596.839 84.3675 598.509 87.4961C600.179 90.5204 602.475 92.919 605.397 94.6918C608.32 96.3604 611.66 97.1947 615.417 97.1947Z" fill="white"/>
<path d="M526.441 116.279C518.822 116.279 511.933 114.558 505.775 111.117C499.722 107.571 494.868 102.826 491.216 96.8818C487.667 90.8333 485.893 84.1068 485.893 76.7025C485.893 69.2982 487.667 62.6761 491.216 56.8361C494.764 50.8918 499.617 46.199 505.775 42.7575C511.933 39.2118 518.769 37.439 526.284 37.439C534.008 37.439 540.896 39.2118 546.95 42.7575C553.107 46.199 557.961 50.8918 561.509 56.8361C565.058 62.6761 566.832 69.2982 566.832 76.7025C566.832 84.1068 565.058 90.8333 561.509 96.8818C557.961 102.826 553.107 107.571 546.95 111.117C540.896 114.558 534.06 116.279 526.441 116.279ZM526.284 97.1947C530.146 97.1947 533.538 96.3604 536.46 94.6918C539.487 92.919 541.783 90.5204 543.349 87.4961C545.019 84.3675 545.854 80.8218 545.854 76.859C545.854 72.8961 545.019 69.4025 543.349 66.3783C541.679 63.354 539.383 61.0075 536.46 59.339C533.538 57.5661 530.146 56.6797 526.284 56.6797C522.527 56.6797 519.187 57.5661 516.264 59.339C513.342 61.0075 511.046 63.354 509.376 66.3783C507.706 69.4025 506.871 72.8961 506.871 76.859C506.871 80.8218 507.706 84.3675 509.376 87.4961C511.046 90.5204 513.342 92.919 516.264 94.6918C519.187 96.3604 522.527 97.1947 526.284 97.1947Z" fill="white"/>
<path d="M408.09 114.714V4.74512H429.381V114.714H408.09ZM423.745 114.714V95.7865H479.793V114.714H423.745Z" fill="white"/>
<path d="M373.816 116.278C370.059 116.278 366.98 115.027 364.579 112.524C362.179 110.021 360.979 106.945 360.979 103.295C360.979 99.6446 362.179 96.5682 364.579 94.0653C366.98 91.5625 370.059 90.311 373.816 90.311C377.469 90.311 380.496 91.5625 382.896 94.0653C385.297 96.5682 386.497 99.6446 386.497 103.295C386.497 106.945 385.297 110.021 382.896 112.524C380.496 115.027 377.469 116.278 373.816 116.278Z" fill="#B8A893"/>
<path d="M311.192 116.279C303.26 116.279 296.215 114.61 290.057 111.273C283.899 107.832 278.993 103.139 275.34 97.1947C271.792 91.2504 270.018 84.4718 270.018 76.859C270.018 69.3504 271.74 62.6761 275.184 56.8361C278.733 50.8918 283.534 46.199 289.587 42.7575C295.641 39.2118 302.373 37.439 309.783 37.439C317.089 37.439 323.508 39.1075 329.039 42.4447C334.675 45.6775 339.059 50.1618 342.19 55.8975C345.426 61.529 347.043 67.9425 347.043 75.1383C347.043 76.494 346.939 77.9018 346.73 79.3618C346.626 80.7175 346.365 82.2818 345.947 84.0547L282.386 84.2111V68.8811L336.397 68.7247L328.1 75.1383C327.891 70.654 327.056 66.8997 325.595 63.8754C324.238 60.8511 322.203 58.5568 319.489 56.9925C316.88 55.324 313.645 54.4897 309.783 54.4897C305.712 54.4897 302.164 55.4283 299.137 57.3054C296.11 59.0783 293.762 61.6332 292.092 64.9704C290.526 68.2032 289.744 72.0618 289.744 76.5461C289.744 81.1347 290.579 85.1497 292.249 88.5911C294.023 91.9282 296.528 94.5354 299.763 96.4125C302.999 98.1854 306.756 99.0718 311.035 99.0718C314.897 99.0718 318.393 98.4461 321.525 97.1947C324.656 95.839 327.369 93.8575 329.666 91.2504L341.72 103.295C338.067 107.571 333.579 110.804 328.257 112.994C323.038 115.184 317.35 116.279 311.192 116.279Z" fill="white"/>
<path d="M236.346 114.715V1.6167H256.855V114.715H236.346Z" fill="white"/>
<path d="M179.572 115.34L147.947 39.1592H170.178L191.157 97.3506H183.642L205.403 39.1592H227.791L194.131 115.183L179.572 115.34ZM158.593 146.313L181.607 97.6635L194.131 115.183L180.354 146.313H158.593Z" fill="white"/>
<path d="M106.04 114.714V7.7168H126.549V114.714H106.04ZM88.3496 57.1482V39.1589H144.24V57.1482H88.3496Z" fill="white"/>
<path d="M39.9219 116.278C31.0503 116.278 23.4313 114.766 17.0646 111.742C10.8024 108.718 5.11417 104.181 0 98.1325L14.0901 84.0539C17.3256 88.3296 21.0829 91.6668 25.3621 94.0654C29.6413 96.3597 34.8599 97.5068 41.0177 97.5068C46.5494 97.5068 50.933 96.4118 54.1685 94.2218C57.5083 92.0318 59.1783 89.0075 59.1783 85.1489C59.1783 81.8118 58.2389 79.1004 56.3603 77.0146C54.4816 74.9289 51.9767 73.1561 48.8456 71.6961C45.8188 70.2361 42.4268 68.9325 38.6694 67.7854C35.0164 66.5339 31.3113 65.1261 27.5539 63.5618C23.9009 61.9975 20.5089 60.0682 17.3777 57.7739C14.351 55.3754 11.8983 52.3511 10.0196 48.7011C8.14093 44.9468 7.20159 40.2539 7.20159 34.6225C7.20159 27.9482 8.81934 22.2646 12.0548 17.5718C15.2903 12.8789 19.7261 9.28107 25.3621 6.77821C30.9981 4.27535 37.3648 3.02393 44.462 3.02393C51.9767 3.02393 58.7608 4.43178 64.8143 7.2475C70.8678 10.0632 75.8254 13.7132 79.6872 18.1975L65.5971 32.2761C62.3616 28.7304 59.0217 26.1232 55.5775 24.4546C52.2376 22.7861 48.4281 21.9518 44.1489 21.9518C39.2434 21.9518 35.3817 22.8904 32.5637 24.7675C29.7457 26.6446 28.3367 29.3561 28.3367 32.9018C28.3367 35.9261 29.276 38.3768 31.1547 40.2539C33.0334 42.1311 35.4861 43.7475 38.5128 45.1032C41.644 46.4589 45.036 47.7625 48.689 49.0139C52.4464 50.2654 56.1515 51.6732 59.8045 53.2375C63.5619 54.8018 66.9539 56.8354 69.9807 59.3382C73.1118 61.8411 75.6167 65.0739 77.4954 69.0368C79.374 72.8954 80.3134 77.6925 80.3134 83.4282C80.3134 93.6482 76.7126 101.678 69.511 107.518C62.3094 113.358 52.4464 116.278 39.9219 116.278Z" fill="white"/>
</svg>
