<svg width="34" height="34" viewBox="0 0 34 34" fill="none" xmlns="http://www.w3.org/2000/svg">
<path fill-rule="evenodd" clip-rule="evenodd" d="M4.49371 7.32639C2.83398 8.98612 2.83398 11.6574 2.83398 17C2.83398 22.3426 2.83398 25.0139 4.49371 26.6736C6.15344 28.3333 8.82473 28.3333 14.1673 28.3333H19.834C25.1766 28.3333 27.8479 28.3333 29.5076 26.6736C31.1673 25.0139 31.1673 22.3426 31.1673 17C31.1673 11.6574 31.1673 8.98612 29.5076 7.32639C27.8479 5.66666 25.1766 5.66666 19.834 5.66666H14.1673C8.82473 5.66666 6.15344 5.66666 4.49371 7.32639ZM26.3169 10.6531C26.6925 11.1039 26.6316 11.7739 26.1808 12.1496L23.0692 14.7426C21.8135 15.7891 20.7957 16.6372 19.8975 17.2149C18.9618 17.8167 18.0505 18.1969 17.0007 18.1969C15.9508 18.1969 15.0395 17.8167 14.1038 17.2149C13.2056 16.6372 12.1878 15.7891 10.9322 14.7426L7.82046 12.1496C7.36966 11.7739 7.30875 11.1039 7.68442 10.6531C8.06008 10.2023 8.73005 10.1414 9.18085 10.5171L12.2393 13.0658C13.561 14.1672 14.4786 14.9294 15.2533 15.4277C16.0032 15.91 16.5118 16.0719 17.0007 16.0719C17.4895 16.0719 17.9981 15.91 18.748 15.4277C19.5227 14.9294 20.4403 14.1672 21.762 13.0658L24.8205 10.5171C25.2712 10.1414 25.9412 10.2023 26.3169 10.6531Z" fill="#C2B4A3"/>
</svg>
