<svg width="34" height="34" viewBox="0 0 34 34" fill="none" xmlns="http://www.w3.org/2000/svg">
<path fill-rule="evenodd" clip-rule="evenodd" d="M16.9993 2.83334C10.7401 2.83334 5.66602 8.50366 5.66602 14.875C5.66602 21.1964 9.28322 28.0676 14.9269 30.7055C16.2425 31.3204 17.7562 31.3204 19.0718 30.7055C24.7155 28.0676 28.3327 21.1964 28.3327 14.875C28.3327 8.50366 23.2586 2.83334 16.9993 2.83334ZM16.9993 17C18.5642 17 19.8327 15.7315 19.8327 14.1667C19.8327 12.6019 18.5642 11.3333 16.9993 11.3333C15.4345 11.3333 14.166 12.6019 14.166 14.1667C14.166 15.7315 15.4345 17 16.9993 17Z" fill="#C2B4A3"/>
</svg>
