<svg width="34" height="34" viewBox="0 0 34 34" fill="none" xmlns="http://www.w3.org/2000/svg">
<path d="M14.2193 7.53124L15.1387 9.17872C15.9684 10.6655 15.6354 12.6159 14.3285 13.9227C14.3285 13.9227 14.3285 13.9227 14.3285 13.9227C14.3284 13.9228 12.7435 15.508 15.6174 18.3819C18.4907 21.2552 20.0758 19.6716 20.0766 19.6708C20.0767 19.6708 20.0766 19.6708 20.0767 19.6708C21.3835 18.364 23.3339 18.0309 24.8206 18.8606L26.4681 19.7801C28.7131 21.033 28.9783 24.1814 27.0049 26.1548C25.8192 27.3405 24.3666 28.2632 22.7608 28.324C20.0576 28.4265 15.4669 27.7424 10.8619 23.1374C6.25695 18.5324 5.57282 13.9417 5.6753 11.2385C5.73617 9.63276 6.65882 8.18016 7.84457 6.99441C9.81792 5.02106 12.9663 5.2862 14.2193 7.53124Z" fill="#C2B4A3"/>
</svg>
