<svg width="34" height="34" viewBox="0 0 34 34" fill="none" xmlns="http://www.w3.org/2000/svg">
<path fill-rule="evenodd" clip-rule="evenodd" d="M7.36484 4.67388C8.21797 2.83337 11.1455 2.83337 17.0007 2.83337C22.8558 2.83337 25.7833 2.83337 26.6365 4.67388C26.7098 4.83209 26.7717 4.99642 26.8215 5.16534C27.401 7.13054 25.3309 9.40828 21.1907 13.9638L18.4173 17L21.1907 20.0363C25.3309 24.5918 27.401 26.8695 26.8215 28.8347C26.7717 29.0037 26.7098 29.168 26.6365 29.3262C25.7833 31.1667 22.8558 31.1667 17.0007 31.1667C11.1455 31.1667 8.21797 31.1667 7.36484 29.3262C7.29151 29.168 7.22964 29.0037 7.17983 28.8347C6.60029 26.8695 8.67038 24.5918 12.8106 20.0363L15.584 17L12.8106 13.9638C8.67038 9.40828 6.60029 7.13054 7.17983 5.16534C7.22964 4.99642 7.29151 4.83209 7.36484 4.67388ZM14.1673 25.1459C13.5805 25.1459 13.1048 25.6216 13.1048 26.2084C13.1048 26.7952 13.5805 27.2709 14.1673 27.2709H19.834C20.4208 27.2709 20.8965 26.7952 20.8965 26.2084C20.8965 25.6216 20.4208 25.1459 19.834 25.1459H14.1673ZM13.1048 7.79171C13.1048 7.20491 13.5805 6.72921 14.1673 6.72921H19.834C20.4208 6.72921 20.8965 7.20491 20.8965 7.79171C20.8965 8.37851 20.4208 8.85421 19.834 8.85421H14.1673C13.5805 8.85421 13.1048 8.37851 13.1048 7.79171Z" fill="#C2B4A3"/>
</svg>
