<svg width="34" height="34" viewBox="0 0 34 34" fill="none" xmlns="http://www.w3.org/2000/svg">
<path fill-rule="evenodd" clip-rule="evenodd" d="M8.97222 2.83337H25.0278C25.4663 2.83337 25.6856 2.83337 25.8704 2.85034C27.9251 3.03894 29.5541 4.74806 29.7338 6.90376C29.75 7.09771 29.75 7.32775 29.75 7.78784V28.7014C29.75 29.9375 28.2502 30.462 27.5433 29.4731C27.0529 28.7871 26.0721 28.7871 25.5817 29.4731L24.9688 30.3306C24.1719 31.4454 22.5781 31.4454 21.7812 30.3306C20.9844 29.2159 19.3906 29.2159 18.5938 30.3306C17.7969 31.4454 16.2031 31.4454 15.4062 30.3306C14.6094 29.2159 13.0156 29.2159 12.2188 30.3306C11.4219 31.4454 9.82812 31.4454 9.03125 30.3306L8.41827 29.4731C7.92788 28.7871 6.94712 28.7871 6.45673 29.4731C5.74983 30.462 4.25 29.9375 4.25 28.7014V7.78784C4.25 7.32775 4.25 7.09771 4.26617 6.90376C4.44593 4.74806 6.07494 3.03894 8.12959 2.85034C8.31444 2.83337 8.5337 2.83337 8.97222 2.83337ZM14.918 10.5821C14.5031 10.1671 13.8303 10.1671 13.4154 10.5821C13.0005 10.997 13.0005 11.6697 13.4154 12.0847L15.4974 14.1667L13.4154 16.2487C13.0005 16.6637 13.0005 17.3364 13.4154 17.7513C13.8303 18.1663 14.5031 18.1663 14.918 17.7513L17 15.6693L19.082 17.7513C19.497 18.1663 20.1697 18.1663 20.5846 17.7513C20.9996 17.3364 20.9996 16.6637 20.5846 16.2487L18.5026 14.1667L20.5847 12.0847C20.9996 11.6698 20.9996 10.997 20.5847 10.5821C20.1697 10.1672 19.497 10.1672 19.0821 10.5821L17 12.6641L14.918 10.5821ZM10.625 20.8959C10.0382 20.8959 9.5625 21.3716 9.5625 21.9584C9.5625 22.5452 10.0382 23.0209 10.625 23.0209H23.375C23.9618 23.0209 24.4375 22.5452 24.4375 21.9584C24.4375 21.3716 23.9618 20.8959 23.375 20.8959H10.625Z" fill="#C2B4A3"/>
</svg>
