<svg width="34" height="34" viewBox="0 0 34 34" fill="none" xmlns="http://www.w3.org/2000/svg">
<path d="M29.6676 11.6008C30.4895 12.413 30.843 13.4355 31.0082 14.6499C31.1674 15.8197 31.1673 17.3069 31.1673 19.1521V19.3002C31.1673 21.1454 31.1674 22.6326 31.0082 23.8024C30.843 25.0168 30.4895 26.0393 29.6676 26.8515C28.8457 27.6636 27.8109 28.0129 26.5818 28.1762C25.398 28.3334 23.8929 28.3334 22.0255 28.3334H15.0485C13.1811 28.3334 11.676 28.3334 10.4922 28.1762C9.26315 28.0129 8.22832 27.6636 7.40644 26.8515C6.90783 26.3588 6.58157 25.7886 6.36518 25.1452C7.59974 25.298 9.1271 25.2979 10.8918 25.2978H17.9886C19.8043 25.2979 21.3687 25.298 22.6215 25.1316C23.9641 24.9532 25.251 24.551 26.2949 23.5195C27.3388 22.488 27.7458 21.2164 27.9263 19.8897C28.0948 18.6518 28.0947 17.106 28.0946 15.3119V15.0455C28.0947 13.3013 28.0948 11.7918 27.94 10.5717C28.5915 10.7855 29.1688 11.108 29.6676 11.6008Z" fill="#C2B4A3"/>
<path d="M14.4402 12.8175C13.1205 12.8175 12.0507 13.8747 12.0507 15.1787C12.0507 16.4827 13.1205 17.5398 14.4402 17.5398C15.7599 17.5398 16.8297 16.4827 16.8297 15.1787C16.8297 13.8747 15.7599 12.8175 14.4402 12.8175Z" fill="#C2B4A3"/>
<path fill-rule="evenodd" clip-rule="evenodd" d="M4.03377 8.2689C2.83398 9.45443 2.83398 11.3625 2.83398 15.1787C2.83398 18.9948 2.83398 20.9029 4.03377 22.0885C5.23355 23.274 7.16457 23.274 11.0266 23.274H17.8538C21.7158 23.274 23.6469 23.274 24.8466 22.0885C26.0464 20.9029 26.0464 18.9948 26.0464 15.1787C26.0464 11.3625 26.0464 9.45443 24.8466 8.2689C23.6469 7.08337 21.7158 7.08337 17.8538 7.08337H11.0266C7.16457 7.08337 5.23355 7.08337 4.03377 8.2689ZM10.0025 15.1787C10.0025 12.7569 11.9893 10.7937 14.4402 10.7937C16.8911 10.7937 18.8779 12.7569 18.8779 15.1787C18.8779 17.6004 16.8911 19.5636 14.4402 19.5636C11.9893 19.5636 10.0025 17.6004 10.0025 15.1787ZM21.9501 18.889C21.3845 18.889 20.926 18.436 20.926 17.8771V12.4802C20.926 11.9214 21.3845 11.4683 21.9501 11.4683C22.5157 11.4683 22.9742 11.9214 22.9742 12.4802V17.8771C22.9742 18.436 22.5157 18.889 21.9501 18.889ZM5.90622 17.8771C5.90622 18.436 6.36472 18.889 6.9303 18.889C7.49588 18.889 7.95438 18.436 7.95438 17.8771L7.95438 12.4802C7.95438 11.9214 7.49588 11.4683 6.9303 11.4683C6.36472 11.4683 5.90622 11.9214 5.90622 12.4802L5.90622 17.8771Z" fill="#C2B4A3"/>
</svg>
