<svg width="34" height="34" viewBox="0 0 34 34" fill="none" xmlns="http://www.w3.org/2000/svg">
<path d="M12.967 7.66185C14.7614 4.44282 15.6587 2.83331 17 2.83331C18.3414 2.83331 19.2386 4.44282 21.0331 7.66184L21.4973 8.49464C22.0072 9.40939 22.2622 9.86676 22.6597 10.1685C23.0572 10.4703 23.5523 10.5823 24.5425 10.8064L25.444 11.0104C28.9286 11.7988 30.6709 12.193 31.0854 13.5259C31.4999 14.8589 30.3121 16.2478 27.9366 19.0257L27.322 19.7444C26.6469 20.5338 26.3094 20.9285 26.1576 21.4167C26.0057 21.905 26.0568 22.4316 26.1588 23.4848L26.2517 24.4437C26.6109 28.15 26.7905 30.0031 25.7052 30.827C24.62 31.6508 22.9888 30.8997 19.7262 29.3975L18.8821 29.0088C17.955 28.582 17.4914 28.3685 17 28.3685C16.5087 28.3685 16.0451 28.582 15.118 29.0088L14.2739 29.3975C11.0113 30.8997 9.38004 31.6508 8.29483 30.827C7.20963 30.0031 7.3892 28.15 7.74835 24.4437L7.84127 23.4848C7.94333 22.4316 7.99436 21.905 7.84251 21.4167C7.69067 20.9285 7.35314 20.5338 6.67809 19.7444L6.06351 19.0257C3.68798 16.2478 2.50021 14.8589 2.91472 13.5259C3.32923 12.193 5.0715 11.7988 8.55605 11.0104L9.45755 10.8064C10.4477 10.5823 10.9428 10.4703 11.3404 10.1685C11.7379 9.86676 11.9929 9.40939 12.5028 8.49464L12.967 7.66185Z" fill="#C2B4A3"/>
</svg>
