<svg width="34" height="34" viewBox="0 0 34 34" fill="none" xmlns="http://www.w3.org/2000/svg">
<path d="M25.5 11.3333C25.5 16.0277 21.6944 19.8333 17 19.8333C12.3056 19.8333 8.5 16.0277 8.5 11.3333C8.5 6.63889 12.3056 2.83331 17 2.83331C21.6944 2.83331 25.5 6.63889 25.5 11.3333Z" fill="#C2B4A3"/>
<path d="M7.13082 15.2766C4.56402 16.7394 2.83337 19.5009 2.83337 22.6666C2.83337 27.3611 6.63895 31.1666 11.3334 31.1666C16.0278 31.1666 19.8334 27.3611 19.8334 22.6666C19.8334 22.3035 19.8106 21.9457 19.7664 21.5946C18.8844 21.8318 17.957 21.9583 17 21.9583C12.5253 21.9583 8.6967 19.1922 7.13082 15.2766Z" fill="#C2B4A3"/>
<path d="M21.7977 20.816C21.9033 21.417 21.9583 22.0354 21.9583 22.6667C21.9583 25.6284 20.7465 28.3071 18.7916 30.234C19.9536 30.8302 21.2708 31.1667 22.6667 31.1667C27.3611 31.1667 31.1667 27.3611 31.1667 22.6667C31.1667 19.501 29.436 16.7394 26.8693 15.2766C25.9075 17.6816 24.0921 19.6529 21.7977 20.816Z" fill="#C2B4A3"/>
</svg>
