<svg width="34" height="34" viewBox="0 0 34 34" fill="none" xmlns="http://www.w3.org/2000/svg">
<path d="M31.1666 11.5634L31.1666 11.6661C31.1666 12.8855 31.1666 13.4952 30.8731 13.994C30.5795 14.4928 30.0466 14.7889 28.9806 15.3811L27.8568 16.0055C28.6312 13.3873 28.8896 10.5742 28.9851 8.1685C28.9892 8.06535 28.9938 7.96093 28.9985 7.85541L29.0018 7.78149C29.9244 8.1019 30.4424 8.34077 30.7656 8.78916C31.1667 9.34568 31.1667 10.0849 31.1666 11.5634Z" fill="#C2B4A3"/>
<path d="M2.83337 11.5634L2.83338 11.6661C2.83341 12.8855 2.83343 13.4952 3.12695 13.994C3.42046 14.4928 3.95343 14.7889 5.01936 15.3811L6.14385 16.0059C5.36931 13.3876 5.11091 10.5743 5.0154 8.16851C5.0113 8.06535 5.00669 7.96094 5.00202 7.85541L4.99876 7.78132C4.0758 8.10181 3.55765 8.34069 3.23443 8.78916C2.83332 9.34568 2.83334 10.0849 2.83337 11.5634Z" fill="#C2B4A3"/>
<path fill-rule="evenodd" clip-rule="evenodd" d="M17.0003 2.83337C19.5269 2.83337 21.6086 3.05592 23.201 3.32459C24.8142 3.59678 25.6208 3.73287 26.2947 4.56289C26.9686 5.39291 26.933 6.29001 26.8618 8.08421C26.6172 14.2439 25.288 21.9375 18.0625 22.6181V27.625H20.0887C20.764 27.625 21.3454 28.1017 21.4778 28.7639L21.7459 30.1042H25.5C26.0868 30.1042 26.5625 30.5799 26.5625 31.1667C26.5625 31.7535 26.0868 32.2292 25.5 32.2292H8.50004C7.91324 32.2292 7.43754 31.7535 7.43754 31.1667C7.43754 30.5799 7.91324 30.1042 8.50004 30.1042H12.2542L12.5223 28.7639C12.6547 28.1017 13.2361 27.625 13.9114 27.625H15.9375V22.6181C8.71248 21.9372 7.38326 14.2437 7.13872 8.08421C7.06749 6.29001 7.03188 5.39291 7.70581 4.56289C8.37974 3.73287 9.18634 3.59678 10.7995 3.32459C12.392 3.05592 14.4736 2.83337 17.0003 2.83337ZM18.3492 8.78177L18.2099 8.53193C17.6716 7.56623 17.4025 7.08337 17 7.08337C16.5976 7.08337 16.3285 7.56623 15.7901 8.53193L15.6509 8.78177C15.4979 9.05619 15.4214 9.19341 15.3021 9.28394C15.1829 9.37448 15.0344 9.40808 14.7373 9.4753L14.4668 9.53649C13.4215 9.77301 12.8988 9.89127 12.7744 10.2912C12.6501 10.691 13.0064 11.1077 13.7191 11.9411L13.9035 12.1567C14.106 12.3935 14.2072 12.5119 14.2528 12.6584C14.2983 12.8049 14.283 12.9629 14.2524 13.2788L14.2245 13.5665C14.1168 14.6784 14.0629 15.2343 14.3885 15.4815C14.714 15.7286 15.2034 15.5033 16.1822 15.0526L16.4354 14.936C16.7136 14.808 16.8526 14.7439 17 14.7439C17.1475 14.7439 17.2865 14.808 17.5647 14.936L17.8179 15.0526C18.7966 15.5033 19.286 15.7286 19.6116 15.4815C19.9372 15.2343 19.8833 14.6784 19.7755 13.5665L19.7477 13.2788C19.7171 12.9629 19.7017 12.8049 19.7473 12.6584C19.7929 12.5119 19.8941 12.3935 20.0966 12.1567L20.281 11.9411C20.9937 11.1077 21.35 10.691 21.2256 10.2912C21.1013 9.89127 20.5786 9.77301 19.5332 9.53649L19.2628 9.4753C18.9657 9.40808 18.8172 9.37448 18.6979 9.28394C18.5787 9.19341 18.5022 9.0562 18.3492 8.78177Z" fill="#C2B4A3"/>
</svg>
