<svg width="34" height="34" viewBox="0 0 34 34" fill="none" xmlns="http://www.w3.org/2000/svg">
<path d="M5.44641 5.44645C3.8512 7.04167 3.8512 9.62803 5.44641 11.2232L7.69571 13.4725C7.7126 13.453 7.73031 13.434 7.74886 13.4154L13.4155 7.74874C13.434 7.73025 13.453 7.71258 13.4725 7.69574L11.2232 5.44645C9.62799 3.85124 7.04163 3.85124 5.44641 5.44645Z" fill="#C2B4A3"/>
<path d="M14.9711 9.19438C14.9543 9.21385 14.9366 9.23285 14.9181 9.25134L9.25146 14.918C9.23292 14.9366 9.21385 14.9543 9.19432 14.9712L22.7768 28.5536C24.372 30.1488 26.9584 30.1488 28.5536 28.5536C30.1488 26.9584 30.1488 24.372 28.5536 22.7768L14.9711 9.19438Z" fill="#C2B4A3"/>
<path d="M22.8084 3.26856C23.0364 2.68831 23.8546 2.68831 24.0826 3.26856L24.6923 4.82021C24.7619 4.99736 24.9016 5.13759 25.0781 5.20746L26.624 5.81943C27.2021 6.04827 27.2021 6.86946 26.624 7.09831L25.0781 7.71027C24.9016 7.78014 24.7619 7.92037 24.6923 8.09752L24.0826 9.64918C23.8546 10.2294 23.0364 10.2294 22.8084 9.64918L22.1987 8.09752C22.1291 7.92037 21.9893 7.78014 21.8129 7.71027L20.2669 7.09831C19.6888 6.86946 19.6888 6.04827 20.2669 5.81943L21.8129 5.20746C21.9893 5.13759 22.1291 4.99736 22.1987 4.82021L22.8084 3.26856Z" fill="#C2B4A3"/>
<path d="M28.2868 12.9334C28.5148 12.3532 29.333 12.3532 29.561 12.9334L29.7833 13.4992C29.8529 13.6763 29.9926 13.8166 30.1691 13.8864L30.7328 14.1096C31.3109 14.3384 31.3109 15.1596 30.7328 15.3884L30.1691 15.6116C29.9926 15.6814 29.8529 15.8217 29.7833 15.9988L29.561 16.5645C29.333 17.1448 28.5148 17.1448 28.2868 16.5645L28.0645 15.9988C27.9949 15.8217 27.8552 15.6814 27.6787 15.6116L27.1151 15.3884C26.537 15.1596 26.537 14.3384 27.1151 14.1096L27.6787 13.8864C27.8552 13.8166 27.9949 13.6763 28.0645 13.4992L28.2868 12.9334Z" fill="#C2B4A3"/>
<path d="M7.27203 21.6852C7.50003 21.105 8.3182 21.105 8.5462 21.6852L8.7685 22.251C8.83811 22.4281 8.97783 22.5683 9.15433 22.6382L9.71798 22.8613C10.2961 23.0902 10.2961 23.9114 9.71798 24.1402L9.15433 24.3633C8.97783 24.4332 8.83811 24.5734 8.7685 24.7506L8.5462 25.3163C8.3182 25.8966 7.50003 25.8966 7.27203 25.3163L7.04973 24.7506C6.98012 24.5734 6.8404 24.4332 6.6639 24.3633L6.10025 24.1402C5.52214 23.9114 5.52214 23.0902 6.10025 22.8613L6.6639 22.6382C6.8404 22.5683 6.98012 22.4281 7.04973 22.251L7.27203 21.6852Z" fill="#C2B4A3"/>
</svg>
