<svg width="34" height="34" viewBox="0 0 34 34" fill="none" xmlns="http://www.w3.org/2000/svg">
<path d="M15.9376 9.99585C12.5296 10.5085 9.91675 13.4491 9.91675 17C9.91675 20.912 13.0881 24.0834 17.0001 24.0834C20.9121 24.0834 24.0834 20.912 24.0834 17C24.0834 13.4491 21.4706 10.5085 18.0626 9.99585V15.5834C18.0626 16.1702 17.5869 16.6459 17.0001 16.6459C16.4133 16.6459 15.9376 16.1702 15.9376 15.5834V9.99585Z" fill="#C2B4A3"/>
<path d="M18.4166 4.95829C18.4166 5.7407 17.7823 6.37496 16.9999 6.37496C16.2175 6.37496 15.5833 5.7407 15.5833 4.95829C15.5833 4.17589 16.2175 3.54163 16.9999 3.54163C17.7823 3.54163 18.4166 4.17589 18.4166 4.95829Z" fill="#C2B4A3"/>
<path d="M29.0417 18.4167C28.2593 18.4167 27.625 17.7824 27.625 17C27.625 16.2176 28.2593 15.5834 29.0417 15.5834C29.8241 15.5834 30.4583 16.2176 30.4583 17C30.4583 17.7824 29.8241 18.4167 29.0417 18.4167Z" fill="#C2B4A3"/>
<path d="M4.95841 18.4167C4.17601 18.4167 3.54175 17.7824 3.54175 17C3.54175 16.2176 4.17601 15.5834 4.95841 15.5834C5.74082 15.5834 6.37508 16.2176 6.37508 17C6.37508 17.7824 5.74082 18.4167 4.95841 18.4167Z" fill="#C2B4A3"/>
<path d="M9.487 7.48354C10.0402 8.03678 10.0402 8.93376 9.487 9.487C8.93376 10.0402 8.03678 10.0402 7.48354 9.487C6.93029 8.93376 6.93029 8.03678 7.48354 7.48354C8.03678 6.93029 8.93376 6.93029 9.487 7.48354Z" fill="#C2B4A3"/>
<path d="M26.5165 24.5131C27.0698 25.0663 27.0698 25.9633 26.5165 26.5165C25.9633 27.0698 25.0663 27.0698 24.5131 26.5165C23.9598 25.9633 23.9598 25.0663 24.5131 24.5131C25.0663 23.9598 25.9633 23.9598 26.5165 24.5131Z" fill="#C2B4A3"/>
<path d="M26.5165 9.487C25.9633 10.0402 25.0663 10.0402 24.5131 9.487C23.9598 8.93376 23.9598 8.03678 24.5131 7.48354C25.0663 6.93029 25.9633 6.93029 26.5165 7.48354C27.0698 8.03678 27.0698 8.93376 26.5165 9.487Z" fill="#C2B4A3"/>
<path d="M9.487 26.5164C8.93376 27.0697 8.03678 27.0697 7.48354 26.5164C6.93029 25.9632 6.93029 25.0662 7.48354 24.513C8.03678 23.9597 8.93376 23.9597 9.487 24.513C10.0402 25.0662 10.0402 25.9632 9.487 26.5164Z" fill="#C2B4A3"/>
</svg>
