<svg width="443" height="446" viewBox="0 0 443 446" fill="none" xmlns="http://www.w3.org/2000/svg">
<g clip-path="url(#clip0_71_1343)">
<mask id="mask0_71_1343" style="mask-type:luminance" maskUnits="userSpaceOnUse" x="0" y="0" width="446" height="446">
<path d="M446 0H0V446H446V0Z" fill="white"/>
</mask>
<g mask="url(#mask0_71_1343)">
<path fill-rule="evenodd" clip-rule="evenodd" d="M238.929 0H207.071V141.054L154.231 10.271L124.694 22.2049L178.903 156.376L76.5784 54.0519L54.0521 76.5784L152.125 174.652L25.0297 119.122L12.2752 148.315L146.757 207.071H0V238.929H146.757L12.2753 297.685L25.0297 326.878L152.125 271.349L54.0521 369.422L76.5784 391.947L178.903 289.624L124.694 423.796L154.231 435.729L207.071 304.946V446H238.929V304.946L291.769 435.729L321.305 423.796L267.098 289.624L369.422 391.947L391.947 369.422L293.874 271.349L420.97 326.878L433.724 297.685L299.244 238.929H446V207.071H299.241L433.724 148.315L420.97 119.122L293.874 174.652L391.947 76.5782L369.422 54.0519L267.098 156.376L321.305 22.2049L291.769 10.271L238.929 141.054V0Z" fill="#C2B4A3"/>
</g>
</g>
<defs>
<clipPath id="clip0_71_1343">
<rect width="446" height="446" fill="white"/>
</clipPath>
</defs>
</svg>
