<svg width="408" height="431" viewBox="0 0 408 431" fill="none" xmlns="http://www.w3.org/2000/svg">
<path d="M396.759 338.251L320.052 262.49C312.982 255.52 317.452 243.471 327.358 242.799L434.917 235.403C448.64 234.464 449.465 214.588 435.859 212.519L329.284 196.323C319.479 194.83 316.003 182.46 323.619 176.092L406.29 106.888C416.843 98.0396 405.819 81.4813 393.594 87.8047L297.854 137.341C289.042 141.897 278.969 133.943 281.378 124.31L307.575 19.7444C310.921 6.38998 292.27 -0.529743 286.095 11.775L237.751 108.124C233.293 116.996 220.471 116.456 216.762 107.255L176.483 7.25333C171.342 -5.5132 152.186 -0.152047 154.413 13.4387L171.941 119.817C173.56 129.612 162.857 136.721 154.451 131.457L63.1025 74.2204C51.4393 66.9149 39.085 82.5127 48.8909 92.1815L125.597 167.943C132.667 174.913 128.197 186.962 118.291 187.634L10.7328 195.029C-2.99632 195.985 -3.81587 215.845 9.78988 217.914L116.365 234.11C126.17 235.602 129.647 247.973 122.03 254.341L39.3599 323.544C28.8128 332.376 39.8362 348.935 52.0607 342.611L147.818 293.081C156.63 288.526 166.696 296.496 164.294 306.112L138.096 410.679C134.751 424.033 153.402 430.953 159.576 418.648L207.921 322.298C212.378 313.426 225.207 313.95 228.91 323.167L269.172 423.163C274.314 435.929 293.47 430.568 291.236 416.994L273.709 310.616C272.105 300.827 282.792 293.711 291.198 298.976L382.547 356.213C394.21 363.518 406.565 347.92 396.759 338.251Z" fill="#C2B4A3"/>
</svg>
