<svg width="447" height="446" viewBox="0 0 447 446" fill="none" xmlns="http://www.w3.org/2000/svg">
<path d="M446.103 250.21L417.377 195.944C376.009 217.836 342.401 231.145 316.912 235.719C346.615 215.42 373.594 180.476 398.157 130.578L343.069 103.394C326.316 137.361 310.643 159.15 296.46 173.025C304.528 135.768 294.25 83.2492 250.159 0L195.893 28.7262C217.784 70.0939 231.094 103.702 235.667 129.139C215.369 99.4366 180.425 72.5091 130.578 47.894L103.393 102.982C137.361 119.735 159.15 135.408 173.025 149.592C135.768 141.524 83.2492 151.801 0 195.841L28.7261 250.107C70.0424 228.216 103.599 214.958 129.088 210.333C99.3338 230.888 72.4063 265.781 47.9454 315.422L103.034 342.607C119.684 308.793 135.408 286.953 149.643 272.975C141.575 310.232 151.853 362.751 195.944 446L250.21 417.274C228.319 375.958 215.06 342.401 210.436 316.912C230.991 346.666 265.884 373.594 315.525 398.055L342.709 342.966C308.896 326.316 287.056 310.643 273.078 296.408C280.632 298.053 288.751 298.926 297.693 298.926C332.843 298.926 379.76 285.257 446.154 250.107L446.103 250.21Z" fill="#C2B4A3"/>
</svg>
