<svg width="446" height="446" viewBox="0 0 446 446" fill="none" xmlns="http://www.w3.org/2000/svg">
<g clip-path="url(#clip0_113_47)">
<mask id="mask0_113_47" style="mask-type:luminance" maskUnits="userSpaceOnUse" x="0" y="0" width="446" height="446">
<path d="M446 0H0V446H446V0Z" fill="white"/>
</mask>
<g mask="url(#mask0_113_47)">
<path d="M222.999 0L228.942 166.447L269.363 4.87309L240.571 168.918L313.702 19.2794L251.432 173.754L354.076 42.5892L261.05 180.741L388.719 73.7838L269.004 189.576L416.124 111.5L274.947 199.871L435.085 154.089L278.622 211.177L444.777 199.69L279.864 223L444.777 246.31L278.622 234.823L435.085 291.911L274.947 246.13L416.124 334.5L269.004 256.425L388.719 372.216L261.05 265.258L354.076 403.411L251.432 272.247L313.702 426.722L240.571 277.082L269.363 441.127L228.942 279.553L222.999 446L217.055 279.553L176.635 441.127L205.427 277.082L132.297 426.722L194.567 272.247L91.923 403.411L184.949 265.258L57.2777 372.216L176.994 256.425L29.8755 334.5L171.05 246.13L10.9135 291.911L167.377 234.823L1.2207 246.31L166.134 223L1.2207 199.69L167.377 211.177L10.9135 154.089L171.05 199.871L29.8755 111.5L176.994 189.576L57.2777 73.7838L184.949 180.741L91.923 42.5892L194.567 173.754L132.297 19.2794L205.427 168.918L176.635 4.87309L217.055 166.447L222.999 0Z" fill="#C7BAAA"/>
</g>
</g>
<defs>
<clipPath id="clip0_113_47">
<rect width="446" height="446" fill="white"/>
</clipPath>
</defs>
</svg>
